<svg width="97" height="52" viewBox="0 0 97 52" fill="none" xmlns="http://www.w3.org/2000/svg">
<path d="M13.4169 29.3992L13.2393 20.813H8V43.3026H13.4169V34.455C13.5501 27.6122 16.2142 25.3894 23.3627 24.9535V20.4643C16.969 20.4643 14.6157 22.8615 13.5945 29.3992H13.4169Z" fill="#0898A0"/>
<path d="M25.8127 43.3026H31.2296V20.813H25.8127V43.3026Z" fill="#0898A0"/>
<path d="M45.2592 44C51.7418 44 55.5602 41.3849 55.5602 36.9829C55.5602 33.6269 53.3846 31.7091 48.9001 30.7503L42.8616 29.4863C40.9524 29.0505 39.8867 28.0916 39.8867 26.8713C39.8867 25.0843 41.7072 23.9947 44.7264 23.9947C48.0565 23.9947 50.0101 25.5637 50.0101 28.1352H55.205C55.205 23.0794 51.2534 20.1156 44.5488 20.1156C38.4215 20.1156 34.5586 22.8179 34.5586 27.002C34.5586 30.4016 37.0895 32.5373 41.2632 33.3654L47.0353 34.5857C49.3885 35.1087 50.1877 35.8497 50.1877 37.2008C50.1877 39.0314 48.3229 40.121 45.3036 40.121C41.6184 40.121 39.5315 38.6391 39.3539 35.9804H34.0258C34.2034 41.1234 38.1995 44 45.2592 44Z" fill="#0898A0"/>
<path d="M80.1281 31.3169C80.1281 25.1279 75.8212 20.1156 68.8059 20.1156C61.7462 20.1156 57.0841 24.6484 57.0841 31.9707C57.0841 39.903 61.835 44 69.0723 44C74.1784 44 79.2401 40.9927 79.9505 35.4574H75.022C74.4448 37.9853 72.2692 39.8595 69.0723 39.8595C65.165 39.8595 62.4122 37.4187 62.279 33.0603H80.1281V31.3169ZM68.5839 24.2562C72.1804 24.2562 74.5336 26.4354 74.8 30.0529H62.279C62.5454 26.2175 65.2094 24.2562 68.5839 24.2562Z" fill="#0898A0"/>
<path d="M89 23.4522C89 25.3589 87.4254 26.9045 85.4831 26.9045C83.5408 26.9045 81.9662 25.3589 81.9662 23.4522C81.9662 21.5456 83.5408 20 85.4831 20C87.4254 20 89 21.5456 89 23.4522Z" fill="#0898A0"/>
</svg>
